<svg xmlns="http://www.w3.org/2000/svg" width="48" height="48" fill="none" viewBox="0 1 48 48" part="icon"><path fill="#490005" fill-rule="evenodd" d="M25.6 30.97v-6c0-2.2 0-4.6-.2-6.8 1.4 1 2.4 2.2 2.8 3.8 1 2.4.6 5-.6 7-.4 1-1.2 1.6-2 2M23 11.37c.2-1.6.2-3.2.4-4.8-1.8 2.2-6.4 4-6.4 4 .2.2.6.4.8.8zm-4 26.2h-1.2c-.4.4-.6.6-1 .8 0 0 4.2 1.6 6.2 3.8-.2-1.6-.2-3-.4-4.6zm10.4-25.2c.4-.8 1-1.4 1.6-1.8-.4-.2-4.4-1.8-6.2-3.8.2 1.6.4 3.2.4 5 1.4-.2 2.8.2 4.2.6m-6.8 4.8c-.4-.2-.8-.2-1-.2h-1v14.2c.8.2 1.4.2 2.2 0 0-2.2-.2-4.4-.2-6.4-.2-2.4-.2-5 0-7.6m6.8 19-1.8.6c-.8.2-1.6.4-2.2.6-.2 1.6-.2 3.2-.4 4.8 1.8-1.8 5.2-3.4 6-3.6v-.2c-1.2-1.2-1.6-1.8-1.6-2.2m5-21.8c.4-.4.8-.8 1.2-1-1-.4-2-.4-3-.2v.4c.6.2 1.2.6 1.8.8m-22.6 2.4h-1l-1.6 1.6c1.4 1 1.6 3.2 1.6 3.2-1.2-.2-2.2-2-2.2-2-2.2 3.8-7.6 5-7.6 5s5.4 1.2 7.6 5c0 0 1-1.8 2.2-2 0 0-.4 2.2-1.6 3.2l1.6 1.6H12v-.2c.2-1.4 0-14.4-.2-15.4M37 32.168l1.6-1.6c-.8-.6-1.4-1.6-1.6-2.6q-.9 2.4-2.4 4.2zm-4 2.2c0 .4 0 1-.2 1.4 1 .2 2 .2 2.8-.2-.8-.2-1.6-1.2-2-2.2-.2.2-.4.4-.8.6.2 0 .2.2.2.4m12.6-10.2c-2.2-.8-4.4-1.8-6.4-2.8l-1.2-.6c-.2.4-.6.4-1 .6.4 1.4.6 2.6.4 4 0 .8-.2 1.6-.4 2.2 1 .4 2 2 2 2 2.2-4 7.6-5 7.6-5s-.2 0-.6-.2z" clip-rule="evenodd"></path><path fill="#F40000" fill-rule="evenodd" d="M24.8 6.77c.2 1.6.4 3.2.4 4.8-.8 0-1.4 0-2.2-.2 0-1.6.2-3.2.4-4.8.2-2 .4-3.8.8-5.6.2 2 .4 3.8.6 5.8m-2.4 18.2c0 2.2 0 4.4.2 6.4h1.2c.6 0 1.2-.2 1.8-.4v-6c0-2.2 0-4.6-.2-6.8-.8-.6-1.8-1-2.8-1-.2 2.6-.2 5.2-.2 7.8m2.8 12.4c-.8.2-1.6.2-2.2.2h-.4c.2 1.6.2 3 .4 4.6.2 2.2.6 4.6 1 6.8.4-2.2.6-4.6 1-6.8 0-1.6.2-3.2.2-4.8m-8.6-26.001c-.2-1.8-.4-3.4-.8-5-.2 1.6-.6 3.4-.8 5.2h1zm-1.6 26c.2 2.2.4 4.2 1 6.2.4-2 .8-4.2 1-6.2zm17.6-24.2c-.2-2.4-.6-4.6-1-7l-.6 4.2c-.2.8-.2 1.6-.2 2.2.6.2 1 .4 1.6.6l.4.2zm-1.4 22c-.2.2-.4.2-.6.4 0 .8.2 1.8.4 2.8v.2c.2 1.8.4 3.4.8 5.2.6-2.6 1-5.2 1-8 0-.4 0-.8.2-1.4v-.4z" clip-rule="evenodd"></path><path fill="#E8DCC1" fill-rule="evenodd" d="M37.4 19.17c-1.2-1-2.6-1.6-4-2.2 1.6 2 3.2 4.4 3 8.2-.2 2.6-1.4 5-3.2 6.6-1.6 1.8-3.8 3-6.2 3.6-1.4.4-2.8.8-4.2.8-4.8 0-9.6-.4-14 .2 0-.4-.2-.8-.2-1.2 1.8-.4 4.4-1 4.6-3.2.2-1.2.2-14.8-.2-15.6-.2-1.4-3-1.8-4.4-2 0-.4.2-.8.2-1.2 3.2-.4 6.2-.4 9.4-.6 8.6-.4 16 1.4 19.2 6.6m-17.8-3.401c-.4 0-.4 1.4-.4 1.8v10.8c0 1-.4 3.4.4 4 .6.6 3.2.4 4.2.2 5.2-.4 7.6-6 5.8-11.2-1.2-3.2-3.6-5.6-7.8-5.8-.8.2-1.6.2-2.2.2" clip-rule="evenodd"></path></svg>